Coordinates
version=1
nRows=38
nColumns=12
inDegrees=yes

Units are S.I. units (second, meters, Newtons, ...)
Angles are in degrees

endheader
time	SC_y	SC_z	SC_x	AC_y	AC_z	AC_x	GH_y	GH_z	GH_yy	EL_x	PS_y
       0.0              -54.43          31.28           32.3          52.94         -6.956         -3.452         -43.68          59.29         -125.5          43.04          43.47
   0.04246              -54.43          31.27          32.31          52.94         -6.955         -3.454         -43.67          59.28         -125.5          43.04          43.47
   0.08493              -54.42          31.27          32.31          52.94         -6.955         -3.456         -43.66          59.28         -125.5          43.04          43.47
    0.1274              -54.42          31.27          32.32          52.93         -6.954         -3.458         -43.65          59.27         -125.6          43.03          43.47
    0.1699              -54.41          31.27          32.32          52.93         -6.953         -3.461         -43.64          59.27         -125.6          43.03          43.47
    0.2123               -54.4          31.27          32.33          52.93         -6.953         -3.463         -43.63          59.26         -125.6          43.03          43.47
    0.2548               -54.4          31.27          32.33          52.93         -6.952         -3.466         -43.62          59.26         -125.6          43.02          43.47
    0.2973              -54.39          31.27          32.34          52.93         -6.951         -3.469         -43.61          59.25         -125.6          43.02          43.47
    0.3397              -54.38          31.27          32.35          52.93          -6.95         -3.472          -43.6          59.25         -125.6          43.02          43.47
    0.3822              -54.38          31.27          32.36          52.92         -6.949         -3.476         -43.58          59.24         -125.6          43.01          43.47
    0.4246              -54.37          31.27          32.36          52.92         -6.948         -3.479         -43.57          59.23         -125.6          43.01          43.47
    0.4671              -54.36          31.27          32.37          52.92         -6.947         -3.483         -43.55          59.22         -125.6          43.01          43.48
    0.5096              -54.35          31.27          32.38          52.92         -6.946         -3.488         -43.53          59.21         -125.6           43.0          43.48
     0.552              -54.34          31.27          32.39          52.91         -6.945         -3.492         -43.52          59.21         -125.7           43.0          43.48
    0.5945              -54.33          31.27           32.4          52.91         -6.943         -3.497          -43.5          59.19         -125.7          42.99          43.48
     0.637              -54.31          31.27          32.42          52.91         -6.942         -3.503         -43.47          59.18         -125.7          42.99          43.48
    0.6794               -54.3          31.26          32.43           52.9          -6.94         -3.509         -43.45          59.17         -125.7          42.98          43.48
    0.7219              -54.29          31.26          32.44           52.9         -6.938         -3.515         -43.42          59.16         -125.7          42.97          43.48
    0.7644              -54.27          31.26          32.46          52.89         -6.936         -3.522          -43.4          59.15         -125.8          42.96          43.48
    0.8068              -54.25          31.26          32.48          52.89         -6.934          -3.53         -43.36          59.13         -125.8          42.96          43.49
    0.8493              -54.23          31.26           32.5          52.88         -6.932         -3.538         -43.33          59.11         -125.8          42.95          43.49
    0.8918              -54.21          31.26          32.52          52.88         -6.929         -3.547         -43.29          59.09         -125.8          42.94          43.49
    0.9342              -54.19          31.26          32.54          52.87         -6.927         -3.558         -43.25          59.07         -125.9          42.93          43.49
    0.9767              -54.16          31.25          32.57          52.86         -6.924         -3.569          -43.2          59.05         -125.9          42.91          43.49
     1.019              -54.13          31.25          32.59          52.86          -6.92         -3.582         -43.15          59.03         -125.9           42.9           43.5
     1.062               -54.1          31.25          32.62          52.85         -6.916         -3.596          -43.1           59.0         -126.0          42.89           43.5
     1.104              -54.07          31.25          32.66          52.84         -6.912         -3.611         -43.03          58.97         -126.0          42.87           43.5
     1.147              -54.03          31.24           32.7          52.83         -6.907         -3.629         -42.96          58.93         -126.1          42.85          43.51
     1.189              -53.98          31.24          32.75          52.81         -6.901         -3.649         -42.88          58.89         -126.2          42.83          43.51
     1.231              -53.93          31.23           32.8           52.8         -6.895         -3.672         -42.79          58.84         -126.2           42.8          43.51
     1.274              -53.87          31.23          32.85          52.78         -6.888         -3.698         -42.68          58.79         -126.3          42.78          43.52
     1.316               -53.8          31.22          32.92          52.76          -6.88         -3.728         -42.56          58.73         -126.4          42.74          43.53
     1.359              -53.72          31.22           33.0          52.74          -6.87         -3.762         -42.42          58.66         -126.5          42.71          43.53
     1.401              -53.63          31.21          33.09          52.72         -6.859         -3.802         -42.26          58.58         -126.6          42.67          43.54
     1.444              -53.52           31.2          33.19          52.69         -6.847         -3.849         -42.07          58.49         -126.8          42.62          43.55
     1.486               -53.4          31.19          33.32          52.65         -6.831         -3.904         -41.85          58.38         -127.0          42.56          43.56
     1.529              -53.25          31.18          33.46          52.61         -6.813         -3.969         -41.58          58.24         -127.2          42.49          43.58
     1.571              -53.07          31.16          33.64          52.56         -6.792         -4.048         -41.26          58.09         -127.4           42.4          43.59
